<?xml version="1.0" encoding="UTF-8"?>
<!DOCTYPE svg PUBLIC "-//W3C//DTD SVG 1.1//EN" "http://www.w3.org/Graphics/SVG/1.1/DTD/svg11.dtd">
<!-- Creator: CorelDRAW (Evaluation Version) -->
<svg xmlns="http://www.w3.org/2000/svg" xml:space="preserve" width="10.0647mm" height="10.282mm" version="1.1" style="shape-rendering:geometricPrecision; text-rendering:geometricPrecision; image-rendering:optimizeQuality; fill-rule:evenodd; clip-rule:evenodd"
viewBox="0 0 212.13 216.71"
 xmlns:xlink="http://www.w3.org/1999/xlink"
 xmlns:xodm="http://www.corel.com/coreldraw/odm/2003">
 <defs>
  <style type="text/css">
   <![CDATA[
    .str0 {stroke:black;stroke-width:5.27;stroke-miterlimit:22.9256}
    .fil2 {fill:none}
    .fil0 {fill:#730000}
    .fil1 {fill:#8A0000}
    .fil3 {fill:white;fill-rule:nonzero}
   ]]>
  </style>
 </defs>
 <g id="Layer_x0020_1">
  <metadata id="CorelCorpID_0Corel-Layer"/>
  <path id="path576" class="fil0 str0" d="M195.12 20.7c10.06,13.88 13.26,47.46 14.18,81.75 1.07,39.66 -2.04,80.61 -15.08,94.52 -14.33,15.28 -52.76,17.62 -91.51,17.03 -35.64,-0.55 -71.77,-2.87 -85.27,-15.6 -14.03,-13.22 -15.88,-59.97 -14.39,-101.61 1.22,-34.03 3.36,-64.03 12.75,-75.66 18.95,-23.46 160.98,-25.71 179.31,-0.43z"/>
  <path id="path578" class="fil1 str0" d="M176.5 15.83c8.95,11.43 9.17,41.39 9.06,70.49 -0.11,28.45 -0.34,56.08 -9.76,66.01 -10.94,11.52 -41.41,12.95 -71.02,12.81 -28.81,-0.14 -56.79,-1.56 -67.69,-11.7 -10.32,-9.6 -11.75,-40.99 -11.4,-71.5 0.33,-28.61 1.86,-56.41 10.12,-65.78 14.93,-16.94 126.36,-18.63 140.69,-0.33z"/>
  <line id="line580" class="fil2 str0" x1="174.91" y1="151.93" x2="192.48" y2= "196.57" />
  <line id="line582" class="fil2 str0" x1="34.09" y1="151.93" x2="16.51" y2= "196.57" />
  <path class="fil3" d="M150.36 57.09l-11.4 10.83c-7.76,-8.17 -16.46,-12.26 -26.16,-12.26 -8.17,0 -15.07,2.8 -20.67,8.37 -5.61,5.57 -8.41,12.44 -8.41,20.61 0,5.69 1.25,10.75 3.73,15.15 2.48,4.42 5.99,7.89 10.51,10.41 4.54,2.52 9.58,3.77 15.13,3.77 4.72,0 9.04,-0.87 12.95,-2.64 3.93,-1.77 8.23,-4.98 12.91,-9.62l11.05 11.54c-6.31,6.17 -12.28,10.45 -17.89,12.83 -5.61,2.4 -12.04,3.59 -19.24,3.59 -13.29,0 -24.18,-4.2 -32.65,-12.63 -8.47,-8.41 -12.69,-19.22 -12.69,-32.37 0,-8.53 1.92,-16.09 5.79,-22.71 3.85,-6.62 9.36,-11.94 16.56,-15.97 7.18,-4.03 14.92,-6.05 23.23,-6.05 7.04,0 13.82,1.49 20.37,4.46 6.53,2.97 12.16,7.2 16.88,12.67z"/>
 </g>
</svg>
