<?xml version="1.0" encoding="UTF-8"?>
<!DOCTYPE svg PUBLIC "-//W3C//DTD SVG 1.1//EN" "http://www.w3.org/Graphics/SVG/1.1/DTD/svg11.dtd">
<!-- Creator: CorelDRAW (Evaluation Version) -->
<svg xmlns="http://www.w3.org/2000/svg" xml:space="preserve" width="47.7526mm" height="21.9085mm" version="1.1" style="shape-rendering:geometricPrecision; text-rendering:geometricPrecision; image-rendering:optimizeQuality; fill-rule:evenodd; clip-rule:evenodd"
viewBox="0 0 4775.26 2190.85"
 xmlns:xlink="http://www.w3.org/1999/xlink"
 xmlns:xodm="http://www.corel.com/coreldraw/odm/2003">
 <defs>
  <style type="text/css">
   <![CDATA[
    .str0 {stroke:black;stroke-width:25;stroke-miterlimit:22.9256}
    .fil2 {fill:none}
    .fil5 {fill:#282829}
    .fil6 {fill:#333333}
    .fil0 {fill:#730000}
    .fil1 {fill:#8A0000}
    .fil3 {fill:#E6E6E6}
    .fil4 {fill:white}
    .fil7 {fill:white;fill-rule:nonzero}
   ]]>
  </style>
 </defs>
 <g id="Layer_x0020_1">
  <metadata id="CorelCorpID_0Corel-Layer"/>
  <path id="path576" class="fil0 str0" d="M925.78 98.21c47.72,65.85 62.89,225.17 67.27,387.87 5.06,188.16 -9.67,382.46 -71.53,448.45 -68.01,72.52 -250.33,83.6 -434.18,80.79 -169.11,-2.6 -340.51,-13.63 -404.55,-74 -66.55,-62.7 -75.33,-284.54 -68.26,-482.09 5.77,-161.47 15.96,-303.81 60.51,-358.99 89.9,-111.32 763.78,-121.98 850.74,-2.03z"/>
  <path id="path578" class="fil1 str0" d="M837.4 75.11c42.48,54.24 43.5,196.38 42.99,334.46 -0.5,134.98 -1.59,266.09 -46.33,313.18 -51.91,54.64 -196.47,61.45 -336.95,60.79 -136.71,-0.65 -269.43,-7.4 -321.16,-55.53 -48.97,-45.53 -55.75,-194.5 -54.09,-339.22 1.56,-135.75 8.81,-267.62 48.01,-312.11 70.82,-80.36 599.51,-88.39 667.53,-1.57z"/>
  <line id="line580" class="fil2 str0" x1="829.85" y1="720.83" x2="913.22" y2= "932.65" />
  <line id="line582" class="fil2 str0" x1="161.72" y1="720.83" x2="78.35" y2= "932.65" />
  <path id="path584" class="fil0 str0" d="M2052.94 98.21c47.72,65.85 62.89,225.17 67.27,387.87 5.06,188.16 -9.67,382.46 -71.53,448.45 -68.01,72.52 -250.33,83.6 -434.18,80.79 -169.11,-2.6 -340.51,-13.63 -404.55,-74 -66.55,-62.7 -75.33,-284.54 -68.26,-482.09 5.77,-161.47 15.96,-303.81 60.51,-358.99 89.9,-111.32 763.78,-121.98 850.74,-2.03z"/>
  <path id="path586" class="fil1 str0" d="M1964.56 75.11c42.48,54.24 43.5,196.38 42.99,334.46 -0.5,134.98 -1.59,266.09 -46.33,313.18 -51.91,54.64 -196.47,61.45 -336.95,60.79 -136.71,-0.65 -269.43,-7.4 -321.16,-55.53 -48.97,-45.53 -55.75,-194.5 -54.09,-339.22 1.56,-135.75 8.81,-267.62 48.01,-312.11 70.82,-80.36 599.51,-88.39 667.53,-1.57z"/>
  <line id="line588" class="fil2 str0" x1="1957.01" y1="720.83" x2="2040.38" y2= "932.65" />
  <line id="line590" class="fil2 str0" x1="1288.88" y1="720.83" x2="1205.51" y2= "932.65" />
  <path id="path592" class="fil0 str0" d="M3176.64 98.21c47.72,65.85 62.89,225.17 67.27,387.87 5.06,188.16 -9.67,382.46 -71.53,448.45 -68.01,72.52 -250.33,83.6 -434.18,80.79 -169.11,-2.6 -340.51,-13.63 -404.55,-74 -66.55,-62.7 -75.33,-284.54 -68.26,-482.09 5.77,-161.47 15.96,-303.81 60.51,-358.99 89.9,-111.32 763.78,-121.98 850.74,-2.03z"/>
  <path id="path594" class="fil1 str0" d="M3088.26 75.11c42.48,54.24 43.5,196.38 42.99,334.46 -0.5,134.98 -1.59,266.09 -46.33,313.18 -51.91,54.64 -196.47,61.45 -336.95,60.79 -136.71,-0.65 -269.43,-7.4 -321.16,-55.53 -48.97,-45.53 -55.75,-194.5 -54.09,-339.22 1.56,-135.75 8.81,-267.62 48.01,-312.11 70.82,-80.36 599.51,-88.39 667.53,-1.57z"/>
  <line id="line596" class="fil2 str0" x1="3080.71" y1="720.83" x2="3164.08" y2= "932.65" />
  <line id="line598" class="fil2 str0" x1="2412.58" y1="720.83" x2="2329.21" y2= "932.65" />
  <path id="path600" class="fil3 str0" d="M4300.35 98.21c47.72,65.85 62.89,225.17 67.27,387.87 5.06,188.16 -9.67,382.46 -71.53,448.45 -68.01,72.52 -250.33,83.6 -434.18,80.79 -169.11,-2.6 -340.51,-13.63 -404.55,-74 -66.55,-62.7 -75.33,-284.54 -68.26,-482.09 5.77,-161.47 15.96,-303.81 60.51,-358.99 89.9,-111.32 763.78,-121.98 850.74,-2.03z"/>
  <path id="path602" class="fil4 str0" d="M4211.97 75.11c42.48,54.24 43.5,196.38 42.99,334.46 -0.5,134.98 -1.59,266.09 -46.33,313.18 -51.91,54.64 -196.47,61.45 -336.95,60.79 -136.71,-0.65 -269.43,-7.4 -321.16,-55.53 -48.97,-45.53 -55.75,-194.5 -54.09,-339.22 1.56,-135.75 8.81,-267.62 48.01,-312.11 70.82,-80.36 599.51,-88.39 667.53,-1.57z"/>
  <line id="line604" class="fil2 str0" x1="4204.42" y1="720.83" x2="4287.79" y2= "932.65" />
  <line id="line606" class="fil2 str0" x1="3536.29" y1="720.83" x2="3452.92" y2= "932.65" />
  <path id="path608" class="fil0 str0" d="M4300.35 98.21c47.72,65.85 62.89,225.17 67.27,387.87 5.06,188.16 -9.67,382.46 -71.53,448.45 -68.01,72.52 -250.33,83.6 -434.18,80.79 -169.11,-2.6 -340.51,-13.63 -404.55,-74 -66.55,-62.7 -75.33,-284.54 -68.26,-482.09 5.77,-161.47 15.96,-303.81 60.51,-358.99 89.9,-111.32 763.78,-121.98 850.74,-2.03z"/>
  <path id="path610" class="fil1 str0" d="M4211.97 75.11c42.48,54.24 43.5,196.38 42.99,334.46 -0.5,134.98 -1.59,266.09 -46.33,313.18 -51.91,54.64 -196.47,61.45 -336.95,60.79 -136.71,-0.65 -269.43,-7.4 -321.16,-55.53 -48.97,-45.53 -55.75,-194.5 -54.09,-339.22 1.56,-135.75 8.81,-267.62 48.01,-312.11 70.82,-80.36 599.51,-88.39 667.53,-1.57z"/>
  <line id="line612" class="fil2 str0" x1="4204.42" y1="720.83" x2="4287.79" y2= "932.65" />
  <line id="line614" class="fil2 str0" x1="3536.29" y1="720.83" x2="3452.92" y2= "932.65" />
  <path id="path616" class="fil5 str0" d="M1320 1260.86c47.72,65.85 62.89,225.17 67.27,387.87 5.06,188.16 -9.67,382.46 -71.53,448.45 -68.01,72.52 -250.33,83.6 -434.18,80.79 -169.11,-2.6 -340.51,-13.63 -404.55,-74 -66.55,-62.7 -75.33,-284.54 -68.26,-482.09 5.77,-161.47 15.96,-303.81 60.51,-358.99 89.9,-111.32 763.78,-121.98 850.74,-2.03z"/>
  <path id="path618" class="fil6 str0" d="M1231.62 1237.76c42.48,54.24 43.5,196.38 42.99,334.46 -0.5,134.98 -1.59,266.09 -46.33,313.18 -51.91,54.64 -196.47,61.45 -336.95,60.79 -136.71,-0.65 -269.43,-7.4 -321.16,-55.53 -48.97,-45.53 -55.75,-194.5 -54.09,-339.22 1.56,-135.75 8.81,-267.62 48.01,-312.11 70.82,-80.36 599.51,-88.39 667.53,-1.57z"/>
  <line id="line620" class="fil2 str0" x1="1224.07" y1="1883.48" x2="1307.44" y2= "2095.3" />
  <line id="line622" class="fil2 str0" x1="555.94" y1="1883.48" x2="472.57" y2= "2095.3" />
  <path id="path624" class="fil5 str0" d="M2447.16 1260.86c47.72,65.85 62.89,225.17 67.27,387.87 5.06,188.16 -9.67,382.46 -71.53,448.45 -68.01,72.52 -250.33,83.6 -434.18,80.79 -169.11,-2.6 -340.51,-13.63 -404.55,-74 -66.55,-62.7 -75.33,-284.54 -68.26,-482.09 5.77,-161.47 15.96,-303.81 60.51,-358.99 89.9,-111.32 763.78,-121.98 850.74,-2.03z"/>
  <path id="path626" class="fil6 str0" d="M2358.78 1237.76c42.48,54.24 43.5,196.38 42.99,334.46 -0.5,134.98 -1.59,266.09 -46.33,313.18 -51.91,54.64 -196.47,61.45 -336.95,60.79 -136.71,-0.65 -269.43,-7.4 -321.16,-55.53 -48.97,-45.53 -55.75,-194.5 -54.09,-339.22 1.56,-135.75 8.81,-267.62 48.01,-312.11 70.82,-80.36 599.51,-88.39 667.53,-1.57z"/>
  <line id="line628" class="fil2 str0" x1="2351.23" y1="1883.48" x2="2434.6" y2= "2095.3" />
  <line id="line630" class="fil2 str0" x1="1683.1" y1="1883.48" x2="1599.73" y2= "2095.3" />
  <path id="path632" class="fil5 str0" d="M3570.86 1260.86c47.72,65.85 62.89,225.17 67.27,387.87 5.06,188.16 -9.67,382.46 -71.53,448.45 -68.01,72.52 -250.33,83.6 -434.18,80.79 -169.11,-2.6 -340.51,-13.63 -404.55,-74 -66.55,-62.7 -75.33,-284.54 -68.26,-482.09 5.77,-161.47 15.96,-303.81 60.51,-358.99 89.9,-111.32 763.78,-121.98 850.74,-2.03z"/>
  <path id="path634" class="fil6 str0" d="M3482.48 1237.76c42.48,54.24 43.5,196.38 42.99,334.46 -0.5,134.98 -1.59,266.09 -46.33,313.18 -51.91,54.64 -196.47,61.45 -336.95,60.79 -136.71,-0.65 -269.43,-7.4 -321.16,-55.53 -48.97,-45.53 -55.75,-194.5 -54.09,-339.22 1.56,-135.75 8.81,-267.62 48.01,-312.11 70.82,-80.36 599.51,-88.39 667.53,-1.57z"/>
  <line id="line636" class="fil2 str0" x1="3474.93" y1="1883.48" x2="3558.3" y2= "2095.3" />
  <line id="line638" class="fil2 str0" x1="2806.8" y1="1883.48" x2="2723.43" y2= "2095.3" />
  <path id="path640" class="fil3 str0" d="M4694.57 1260.86c47.72,65.85 62.89,225.17 67.27,387.87 5.06,188.16 -9.67,382.46 -71.53,448.45 -68.01,72.52 -250.33,83.6 -434.18,80.79 -169.11,-2.6 -340.51,-13.63 -404.55,-74 -66.55,-62.7 -75.33,-284.54 -68.26,-482.09 5.77,-161.47 15.96,-303.81 60.51,-358.99 89.9,-111.32 763.78,-121.98 850.74,-2.03z"/>
  <path id="path642" class="fil4 str0" d="M4606.19 1237.76c42.48,54.24 43.5,196.38 42.99,334.46 -0.5,134.98 -1.59,266.09 -46.33,313.18 -51.91,54.64 -196.47,61.45 -336.95,60.79 -136.71,-0.65 -269.43,-7.4 -321.16,-55.53 -48.97,-45.53 -55.75,-194.5 -54.09,-339.22 1.56,-135.75 8.81,-267.62 48.01,-312.11 70.82,-80.36 599.51,-88.39 667.53,-1.57z"/>
  <line id="line644" class="fil2 str0" x1="4598.64" y1="1883.48" x2="4682.01" y2= "2095.3" />
  <line id="line646" class="fil2 str0" x1="3930.51" y1="1883.48" x2="3847.14" y2= "2095.3" />
  <path id="path648" class="fil5 str0" d="M4694.57 1260.86c47.72,65.85 62.89,225.17 67.27,387.87 5.06,188.16 -9.67,382.46 -71.53,448.45 -68.01,72.52 -250.33,83.6 -434.18,80.79 -169.11,-2.6 -340.51,-13.63 -404.55,-74 -66.55,-62.7 -75.33,-284.54 -68.26,-482.09 5.77,-161.47 15.96,-303.81 60.51,-358.99 89.9,-111.32 763.78,-121.98 850.74,-2.03z"/>
  <path id="path650" class="fil6 str0" d="M4606.19 1237.76c42.48,54.24 43.5,196.38 42.99,334.46 -0.5,134.98 -1.59,266.09 -46.33,313.18 -51.91,54.64 -196.47,61.45 -336.95,60.79 -136.71,-0.65 -269.43,-7.4 -321.16,-55.53 -48.97,-45.53 -55.75,-194.5 -54.09,-339.22 1.56,-135.75 8.81,-267.62 48.01,-312.11 70.82,-80.36 599.51,-88.39 667.53,-1.57z"/>
  <line id="line652" class="fil2 str0" x1="4598.64" y1="1883.48" x2="4682.01" y2= "2095.3" />
  <line id="line654" class="fil2 str0" x1="3930.51" y1="1883.48" x2="3847.14" y2= "2095.3" />
  <path class="fil7" d="M713.38 270.86l-54.11 51.38c-36.8,-38.77 -78.11,-58.16 -124.13,-58.16 -38.77,0 -71.52,13.27 -98.06,39.72 -26.63,26.44 -39.9,59 -39.9,97.77 0,27.01 5.93,51.01 17.69,71.9 11.77,20.98 28.42,37.45 49.88,49.4 21.55,11.95 45.45,17.88 71.8,17.88 22.4,0 42.91,-4.14 61.45,-12.51 18.64,-8.38 39.06,-23.62 61.27,-45.64l52.41 54.76c-29.92,29.27 -58.25,49.6 -84.88,60.89 -26.63,11.39 -57.12,17.03 -91.28,17.03 -63.05,0 -114.72,-19.95 -154.9,-59.94 -40.18,-39.9 -60.23,-91.19 -60.23,-153.58 0,-40.47 9.13,-76.32 27.48,-107.75 18.26,-31.43 44.42,-56.65 78.58,-75.76 34.07,-19.1 70.77,-28.7 110.2,-28.7 33.4,0 65.59,7.06 96.64,21.18 30.96,14.11 57.69,34.16 80.09,60.13z"/>
  <path class="fil7" d="M1635.17 195.02c57.29,0 106.58,20.79 147.79,62.28 41.29,41.49 61.9,92.1 61.9,151.74 0,59.17 -20.32,109.22 -61.06,150.14 -40.64,40.92 -90.03,61.43 -148.07,61.43 -60.86,0 -111.38,-21.07 -151.55,-63.12 -40.26,-42.05 -60.4,-92.01 -60.4,-149.86 0,-38.67 9.41,-74.32 28.13,-106.87 18.72,-32.45 44.5,-58.23 77.24,-77.23 32.83,-19.01 68.2,-28.51 106.02,-28.51zm-1.13 75.64c-37.35,0 -68.77,13.07 -94.17,39.13 -25.49,26.06 -38.19,59.17 -38.19,99.44 0,44.78 15.99,80.24 48.07,106.3 24.93,20.41 53.43,30.57 85.7,30.57 36.41,0 67.45,-13.26 93.04,-39.7 25.68,-26.43 38.47,-58.98 38.47,-97.74 0,-38.57 -12.88,-71.21 -38.75,-97.93 -25.78,-26.71 -57.2,-40.07 -94.17,-40.07z"/>
  <polygon class="fil7" points="2586.69,195.18 2659.88,195.18 2834.48,461.88 2834.48,195.18 2911.24,195.18 2911.24,600.45 2837.49,600.45 2663.45,334.6 2663.45,600.45 2586.69,600.45 "/>
  <polygon class="fil7" points="3836.96,195.18 3913.72,195.18 3913.72,600.45 3836.96,600.45 "/>
  <path class="fil7" d="M1096.79 1430.28l-54.11 51.38c-36.8,-38.77 -78.11,-58.16 -124.13,-58.16 -38.77,0 -71.52,13.27 -98.06,39.72 -26.63,26.44 -39.9,59 -39.9,97.77 0,27.01 5.93,51.01 17.69,71.9 11.77,20.98 28.42,37.45 49.88,49.4 21.55,11.95 45.45,17.88 71.8,17.88 22.4,0 42.91,-4.14 61.45,-12.51 18.64,-8.38 39.06,-23.62 61.27,-45.64l52.41 54.76c-29.92,29.27 -58.25,49.6 -84.88,60.89 -26.63,11.39 -57.12,17.03 -91.28,17.03 -63.05,0 -114.72,-19.95 -154.9,-59.94 -40.18,-39.9 -60.23,-91.19 -60.23,-153.58 0,-40.47 9.13,-76.32 27.48,-107.75 18.26,-31.43 44.42,-56.65 78.58,-75.76 34.07,-19.1 70.77,-28.7 110.2,-28.7 33.4,0 65.59,7.06 96.64,21.18 30.96,14.11 57.69,34.16 80.09,60.13z"/>
  <path class="fil7" d="M2029.39 1357.66c57.29,0 106.58,20.79 147.79,62.28 41.29,41.49 61.9,92.1 61.9,151.74 0,59.17 -20.32,109.22 -61.06,150.14 -40.64,40.92 -90.03,61.43 -148.07,61.43 -60.86,0 -111.38,-21.07 -151.55,-63.12 -40.26,-42.05 -60.4,-92.01 -60.4,-149.86 0,-38.67 9.41,-74.32 28.13,-106.87 18.72,-32.45 44.5,-58.23 77.24,-77.23 32.83,-19.01 68.2,-28.51 106.02,-28.51zm-1.13 75.64c-37.35,0 -68.77,13.07 -94.17,39.13 -25.49,26.06 -38.19,59.17 -38.19,99.44 0,44.78 15.99,80.24 48.07,106.3 24.93,20.41 53.43,30.57 85.7,30.57 36.41,0 67.45,-13.26 93.04,-39.7 25.68,-26.43 38.47,-58.98 38.47,-97.74 0,-38.57 -12.88,-71.21 -38.75,-97.93 -25.78,-26.71 -57.2,-40.07 -94.17,-40.07z"/>
  <path class="fil7" d="M3012.45 1367.82l91.34 0c58.89,0 102.64,7.34 131.33,21.92 28.6,14.58 52.21,38.29 70.74,71.21 18.54,32.84 27.75,71.22 27.75,115.15 0,31.23 -5.17,59.93 -15.52,86.08 -10.35,26.15 -24.74,47.88 -42.99,65.19 -18.25,17.22 -38,29.16 -59.26,35.84 -21.27,6.59 -58.14,9.88 -110.64,9.88l-92.75 0 0 -405.27zm76.76 74.51l0 255.69 35.75 0c35.28,0 60.77,-4.05 76.67,-12.14 15.9,-8.09 28.88,-21.73 38.95,-40.82 10.06,-19.1 15.14,-42.62 15.14,-70.65 0,-42.99 -12.04,-76.39 -36.03,-100.1 -21.63,-21.35 -56.44,-31.98 -104.33,-31.98l-26.15 0z"/>
  <polygon class="fil7" points="4171.4,1357.82 4392.66,1357.82 4392.66,1433.46 4248.16,1433.46 4248.16,1506.27 4392.66,1506.27 4392.66,1580.78 4248.16,1580.78 4248.16,1687.46 4392.66,1687.46 4392.66,1763.09 4171.4,1763.09 "/>
 </g>
</svg>
