<svg id="visual" viewBox="0 0 1000 400" xmlns="http://www.w3.org/2000/svg" xmlns:xlink="http://www.w3.org/1999/xlink" version="1.1">
    <g transform="translate(1066.9834212095716 639.4732089865538)">
        <path style="z-index:-1" d="M402 -467.7C512.5 -473.1 587.7 -344.2 514.8 -243.9C441.9 -143.6 221 -71.8 136 -0.8C50.9 70.1 101.9 140.2 101.9 170.6C101.9 200.9 50.9 191.4 24.1 158.3C-2.7 125.1 -5.5 68.2 -124.4 76.5C-243.3 84.8 -478.3 158.3 -591.3 119.2C-704.4 80.1 -695.5 -71.5 -627.2 -179.7C-558.9 -287.9 -431.1 -352.7 -316.6 -346C-202.2 -339.3 -101.1 -261.2 22.3 -291.9C145.8 -322.6 291.5 -462.3 402 -467.7" fill="#4169e1"></path>
    </g>
    <g transform="translate(1010.20198571668436 378.7706015436559)">
        <path d="M56.6 -99.1C88.2 -55 138.7 -58.3 160.7 -40.5C182.6 -22.7 175.9 16.2 179.7 75C183.4 133.8 197.5 212.5 169.3 238.2C141.1 263.8 70.5 236.4 -3.9 241.8C-78.4 247.2 -156.7 285.4 -188.4 260.9C-220.1 236.3 -205.2 149.1 -187.2 88.2C-169.3 27.4 -148.4 -7 -116.7 -17.3C-85 -27.6 -42.5 -13.8 -21.2 -61.2C0 -108.7 0 -217.3 6.3 -226C12.5 -234.6 25.1 -143.2 56.6 -99.1" fill="#BB004B"></path>
    </g>
</svg>
